<svg width="168" height="52" viewBox="0 0 168 52" fill="none" xmlns="http://www.w3.org/2000/svg">
<path d="M52.71 33.6434V3.6875H59.6426V27.9946H74.6634V33.6434H52.71Z" fill="#4F46E5"/>
<path d="M92.1953 34.157C87.9444 34.157 84.6207 32.973 82.2242 30.605C79.8278 28.2371 78.6295 24.8564 78.6295 20.4628V3.6875H85.5622V20.2061C85.5622 23.059 86.147 25.1131 87.3167 26.3684C88.4865 27.6237 90.1269 28.2514 92.2381 28.2514C94.3493 28.2514 95.9897 27.6237 97.1594 26.3684C98.3291 25.1131 98.914 23.059 98.914 20.2061V3.6875H105.761V20.4628C105.761 24.8564 104.563 28.2371 102.166 30.605C99.7699 32.973 96.4462 34.157 92.1953 34.157Z" fill="#4F46E5"/>
<path d="M118.957 33.6434V9.33633H109.371V3.6875H135.476V9.33633H125.89V33.6434H118.957Z" fill="#4F46E5"/>
<path d="M134.406 33.6434L147.758 3.6875H154.605L168 33.6434H160.725L149.77 7.19662H152.508L141.51 33.6434H134.406ZM141.082 27.2243L142.922 21.9606H158.328L160.211 27.2243H141.082Z" fill="#4F46E5"/>
<path d="M52.71 39.0361H54.1971V46.1157H52.71V39.0361Z" fill="white"/>
<path d="M60.2589 43.19V46.1207H58.8662V45.4808C58.5899 45.9498 58.0554 46.1971 57.3027 46.1971C56.0991 46.1971 55.3828 45.528 55.3828 44.6408C55.3828 43.7536 56.0228 43.1064 57.5863 43.1064H58.7681C58.7681 42.4664 58.3863 42.0955 57.5863 42.0955C57.0409 42.0955 56.4809 42.2773 56.1064 42.5719L55.5719 41.5319C56.1355 41.132 56.9645 40.9102 57.7863 40.9102C59.3498 40.9102 60.2589 41.6374 60.2589 43.19ZM58.7717 44.499V43.9754H57.7499C57.0518 43.9754 56.8336 44.2336 56.8336 44.5754C56.8336 44.9463 57.15 45.1972 57.6736 45.1972C58.1717 45.1972 58.6008 44.9681 58.7717 44.499Z" fill="white"/>
<path d="M66.9855 43.1791V46.1171H65.4983V43.4082C65.4983 42.5791 65.1165 42.1973 64.4584 42.1973C63.7421 42.1973 63.2294 42.6373 63.2294 43.5827V46.1207H61.7422V40.9865H63.1639V41.5865C63.5639 41.1465 64.1675 40.9102 64.862 40.9102C66.0728 40.9102 66.9891 41.6156 66.9891 43.1827L66.9855 43.1791Z" fill="white"/>
<path d="M73.7525 39.0361V46.1157H72.3308V45.523C71.9599 45.9702 71.4145 46.192 70.7273 46.192C69.2764 46.192 68.1602 45.163 68.1602 43.5486C68.1602 41.9341 69.2764 40.9051 70.7273 40.9051C71.3563 40.9051 71.8908 41.1051 72.2653 41.5269V39.0361H73.7525ZM72.2908 43.5522C72.2908 42.665 71.7163 42.1305 70.9818 42.1305C70.2473 42.1305 69.6655 42.665 69.6655 43.5522C69.6655 44.4394 70.24 44.9739 70.9818 44.9739C71.7236 44.9739 72.2908 44.4394 72.2908 43.5522Z" fill="white"/>
<path d="M75.0762 39.4404C75.0762 38.9713 75.4471 38.6113 76.0034 38.6113C76.5597 38.6113 76.9306 38.9568 76.9306 39.4149C76.9306 39.9094 76.5597 40.273 76.0034 40.273C75.4471 40.273 75.0762 39.9094 75.0762 39.444V39.4404ZM75.258 40.9857H76.7452V46.1199H75.258V40.9857Z" fill="white"/>
<path d="M83.5116 43.1791V46.1171H82.0244V43.4082C82.0244 42.5791 81.6426 42.1973 80.9845 42.1973C80.2682 42.1973 79.7518 42.6373 79.7518 43.5827V46.1207H78.2646V40.9865H79.6864V41.5865C80.0864 41.1465 80.69 40.9102 81.3845 40.9102C82.5953 40.9102 83.5116 41.6156 83.5116 43.1827V43.1791Z" fill="white"/>
<path d="M90.344 40.9858V45.2619C90.344 47.1709 89.3149 48.0472 87.4605 48.0472C86.486 48.0472 85.5443 47.8072 84.9407 47.3418L85.5334 46.2727C85.9733 46.6254 86.686 46.8545 87.3478 46.8545C88.3986 46.8545 88.8568 46.3782 88.8568 45.451V45.2328C88.4641 45.6619 87.9041 45.8728 87.2351 45.8728C85.8133 45.8728 84.668 44.891 84.668 43.3929C84.668 41.8948 85.8133 40.9131 87.2351 40.9131C87.9514 40.9131 88.5441 41.1531 88.9332 41.6476V40.9894H90.344V40.9858ZM88.875 43.3893C88.875 42.6366 88.3114 42.1312 87.5296 42.1312C86.7478 42.1312 86.1733 42.6366 86.1733 43.3893C86.1733 44.142 86.7478 44.6474 87.5296 44.6474C88.3114 44.6474 88.875 44.142 88.875 43.3893Z" fill="white"/>
<path d="M100.285 43.5536C100.285 45.1644 99.1687 46.1971 97.7288 46.1971C97.0889 46.1971 96.5653 45.9971 96.1835 45.5753V47.9715H94.6963V40.9865H96.118V41.5792C96.4889 41.132 97.0452 40.9102 97.7325 40.9102C99.1724 40.9102 100.289 41.9392 100.289 43.5536H100.285ZM98.776 43.5536C98.776 42.6664 98.2124 42.1319 97.4707 42.1319C96.7289 42.1319 96.1617 42.6664 96.1617 43.5536C96.1617 44.4408 96.7253 44.9754 97.4707 44.9754C98.2161 44.9754 98.776 44.4408 98.776 43.5536Z" fill="white"/>
<path d="M105.866 43.19V46.1207H104.474V45.4808C104.197 45.9498 103.663 46.1971 102.91 46.1971C101.707 46.1971 100.99 45.528 100.99 44.6408C100.99 43.7536 101.63 43.1064 103.194 43.1064H104.375C104.375 42.4664 103.994 42.0955 103.194 42.0955C102.648 42.0955 102.088 42.2773 101.714 42.5719L101.179 41.5319C101.743 41.132 102.572 40.9102 103.394 40.9102C104.957 40.9102 105.866 41.6374 105.866 43.19ZM104.379 44.499V43.9754H103.357C102.659 43.9754 102.441 44.2336 102.441 44.5754C102.441 44.9463 102.757 45.1972 103.281 45.1972C103.779 45.1972 104.208 44.9681 104.379 44.499Z" fill="white"/>
<path d="M112.699 40.9858V45.2619C112.699 47.1709 111.67 48.0472 109.816 48.0472C108.842 48.0472 107.896 47.8072 107.296 47.3418L107.889 46.2727C108.329 46.6254 109.045 46.8545 109.703 46.8545C110.754 46.8545 111.212 46.3782 111.212 45.451V45.2328C110.82 45.6619 110.26 45.8728 109.591 45.8728C108.169 45.8728 107.023 44.891 107.023 43.3929C107.023 41.8948 108.169 40.9131 109.591 40.9131C110.307 40.9131 110.9 41.1531 111.289 41.6476V40.9894H112.699V40.9858ZM111.23 43.3893C111.23 42.6366 110.667 42.1312 109.885 42.1312C109.103 42.1312 108.529 42.6366 108.529 43.3893C108.529 44.142 109.103 44.6474 109.885 44.6474C110.667 44.6474 111.23 44.142 111.23 43.3893Z" fill="white"/>
<path d="M119.215 43.9712H115.332C115.474 44.6112 116.019 45.0003 116.801 45.0003C117.346 45.0003 117.735 44.8366 118.088 44.5021L118.881 45.3602C118.404 45.9057 117.688 46.1893 116.761 46.1893C114.986 46.1893 113.83 45.073 113.83 43.5458C113.83 42.0186 115.005 40.9023 116.568 40.9023C118.132 40.9023 119.241 41.9132 119.241 43.564C119.241 43.6804 119.222 43.8403 119.212 43.964L119.215 43.9712ZM115.314 43.1058H117.844C117.739 42.455 117.252 42.0368 116.586 42.0368C115.921 42.0368 115.423 42.4477 115.317 43.1058H115.314Z" fill="white"/>
<path d="M119.873 45.6444L120.371 44.5754C120.829 44.8699 121.527 45.0735 122.157 45.0735C122.844 45.0735 123.102 44.8917 123.102 44.6045C123.102 43.7645 120 44.6226 120 42.5719C120 41.5974 120.877 40.9102 122.378 40.9102C123.084 40.9102 123.866 41.0738 124.353 41.3574L123.855 42.4155C123.349 42.1283 122.844 42.0337 122.375 42.0337C121.706 42.0337 121.422 42.2446 121.422 42.5101C121.422 43.39 124.524 42.5391 124.524 44.5608C124.524 45.5135 123.636 46.1935 122.098 46.1935C121.229 46.1935 120.353 45.9535 119.873 45.6408V45.6444Z" fill="white"/>
<path d="M40.8106 13.3128L40.7989 3.0449C40.7989 1.93628 39.5817 1.2588 38.6403 1.8395L11.4119 18.6153C10.9925 18.8734 10.7373 19.3309 10.7373 19.8237L10.749 30.0915C10.749 31.2001 11.9662 31.8776 12.9076 31.2969L40.136 14.5211C40.5554 14.263 40.8106 13.8055 40.8106 13.3128Z" fill="#4F46E5"/>
<path d="M40.81 29.1292L40.8012 21.2898C40.8012 20.1899 39.5987 19.5095 38.6544 20.0785C33.8357 22.9791 22.3243 29.9064 19.2947 31.716C18.8665 31.9711 18.6026 32.4345 18.6055 32.9331L18.6143 41.0629C18.6143 42.1715 19.8314 42.849 20.7729 42.2683L40.1384 30.3376C40.5578 30.0795 40.8129 29.6219 40.8129 29.1292H40.81Z" fill="#4F46E5"/>
<path d="M34.9272 50.081C38.1765 50.081 40.8105 47.447 40.8105 44.1977C40.8105 40.9485 38.1765 38.3145 34.9272 38.3145C31.678 38.3145 29.0439 40.9485 29.0439 44.1977C29.0439 47.447 31.678 50.081 34.9272 50.081Z" fill="white"/>
</svg>
